<mxfile host="app.diagrams.net" modified="2023-10-17T05:03:33.402Z" agent="Mozilla/5.0 (Windows NT 10.0; Win64; x64; rv:109.0) Gecko/20100101 Firefox/118.0" etag="1yzWSoTXVaYqEDnoG95T" version="22.0.4" type="github">
  <diagram name="Page-1" id="azywBgY6sLCQviCR10Ke">
    <mxGraphModel dx="1591" dy="1960" grid="1" gridSize="10" guides="1" tooltips="1" connect="1" arrows="1" fold="1" page="1" pageScale="1" pageWidth="850" pageHeight="1100" math="0" shadow="0">
      <root>
        <mxCell id="0" />
        <mxCell id="1" parent="0" />
        <mxCell id="KbHtConoDjhi0rnQ_Idr-2" value="start" style="strokeWidth=2;html=1;shape=mxgraph.flowchart.terminator;whiteSpace=wrap;fillColor=#f5f5f5;strokeColor=#666666;fontColor=#333333;" vertex="1" parent="1">
          <mxGeometry x="320" y="-30" width="160" height="80" as="geometry" />
        </mxCell>
        <mxCell id="KbHtConoDjhi0rnQ_Idr-4" value="" style="endArrow=classic;html=1;rounded=0;entryX=0.498;entryY=0;entryDx=0;entryDy=0;entryPerimeter=0;" edge="1" parent="1" target="KbHtConoDjhi0rnQ_Idr-20">
          <mxGeometry width="50" height="50" relative="1" as="geometry">
            <mxPoint x="399.5" y="50" as="sourcePoint" />
            <mxPoint x="399.5" y="110" as="targetPoint" />
          </mxGeometry>
        </mxCell>
        <mxCell id="KbHtConoDjhi0rnQ_Idr-24" value="" style="edgeStyle=orthogonalEdgeStyle;rounded=0;orthogonalLoop=1;jettySize=auto;html=1;" edge="1" parent="1" source="KbHtConoDjhi0rnQ_Idr-5" target="KbHtConoDjhi0rnQ_Idr-23">
          <mxGeometry relative="1" as="geometry" />
        </mxCell>
        <mxCell id="KbHtConoDjhi0rnQ_Idr-5" value="nilai bilangan 6" style="shape=parallelogram;html=1;strokeWidth=2;perimeter=parallelogramPerimeter;whiteSpace=wrap;rounded=1;arcSize=12;size=0.23;fillColor=#f5f5f5;fontColor=#333333;strokeColor=#666666;" vertex="1" parent="1">
          <mxGeometry x="270" y="250" width="250" height="70" as="geometry" />
        </mxCell>
        <mxCell id="KbHtConoDjhi0rnQ_Idr-27" value="" style="edgeStyle=orthogonalEdgeStyle;rounded=0;orthogonalLoop=1;jettySize=auto;html=1;" edge="1" parent="1" source="KbHtConoDjhi0rnQ_Idr-7" target="KbHtConoDjhi0rnQ_Idr-25">
          <mxGeometry relative="1" as="geometry" />
        </mxCell>
        <mxCell id="KbHtConoDjhi0rnQ_Idr-7" value="bilangan 6%2=0" style="rhombus;whiteSpace=wrap;html=1;fillColor=#f5f5f5;fontColor=#333333;strokeColor=#666666;" vertex="1" parent="1">
          <mxGeometry x="295" y="380" width="210" height="150" as="geometry" />
        </mxCell>
        <mxCell id="KbHtConoDjhi0rnQ_Idr-15" value="" style="endArrow=classic;html=1;rounded=0;" edge="1" parent="1">
          <mxGeometry width="50" height="50" relative="1" as="geometry">
            <mxPoint x="500" y="284.5" as="sourcePoint" />
            <mxPoint x="570" y="284.5" as="targetPoint" />
            <Array as="points">
              <mxPoint x="510" y="284.5" />
            </Array>
          </mxGeometry>
        </mxCell>
        <mxCell id="KbHtConoDjhi0rnQ_Idr-16" value="genap" style="shape=parallelogram;perimeter=parallelogramPerimeter;whiteSpace=wrap;html=1;fixedSize=1;fillColor=#f5f5f5;fontColor=#333333;strokeColor=#666666;" vertex="1" parent="1">
          <mxGeometry x="570" y="250" width="140" height="60" as="geometry" />
        </mxCell>
        <mxCell id="KbHtConoDjhi0rnQ_Idr-19" value="" style="endArrow=classic;html=1;rounded=0;" edge="1" parent="1">
          <mxGeometry width="50" height="50" relative="1" as="geometry">
            <mxPoint x="399.5" y="200" as="sourcePoint" />
            <mxPoint x="400" y="250" as="targetPoint" />
            <Array as="points">
              <mxPoint x="399.5" y="230" />
            </Array>
          </mxGeometry>
        </mxCell>
        <mxCell id="KbHtConoDjhi0rnQ_Idr-20" value="&lt;div&gt;jika bil %2=0, maka genap&lt;/div&gt;&lt;div&gt;Jika bil %2 bukan=0, maka ganjil&lt;/div&gt;&lt;div&gt;&lt;br&gt;&lt;/div&gt;" style="rounded=0;whiteSpace=wrap;html=1;fillColor=#f5f5f5;fontColor=#333333;strokeColor=#666666;" vertex="1" parent="1">
          <mxGeometry x="280" y="120" width="240" height="80" as="geometry" />
        </mxCell>
        <mxCell id="KbHtConoDjhi0rnQ_Idr-22" value="" style="endArrow=classic;html=1;rounded=0;" edge="1" parent="1">
          <mxGeometry width="50" height="50" relative="1" as="geometry">
            <mxPoint x="399.5" y="320" as="sourcePoint" />
            <mxPoint x="399.5" y="380" as="targetPoint" />
            <Array as="points" />
          </mxGeometry>
        </mxCell>
        <mxCell id="KbHtConoDjhi0rnQ_Idr-23" value="ganjil" style="shape=parallelogram;html=1;strokeWidth=2;perimeter=parallelogramPerimeter;whiteSpace=wrap;rounded=1;arcSize=12;size=0.23;fillColor=#f5f5f5;fontColor=#333333;strokeColor=#666666;" vertex="1" parent="1">
          <mxGeometry x="90" y="255" width="150" height="60" as="geometry" />
        </mxCell>
        <mxCell id="KbHtConoDjhi0rnQ_Idr-25" value="End" style="strokeWidth=2;html=1;shape=mxgraph.flowchart.terminator;whiteSpace=wrap;" vertex="1" parent="1">
          <mxGeometry x="330" y="620" width="140" height="80" as="geometry" />
        </mxCell>
        <mxCell id="KbHtConoDjhi0rnQ_Idr-29" value="" style="strokeWidth=2;html=1;shape=mxgraph.flowchart.annotation_1;align=left;pointerEvents=1;" vertex="1" parent="1">
          <mxGeometry x="70" y="300" width="30" height="360" as="geometry" />
        </mxCell>
        <mxCell id="KbHtConoDjhi0rnQ_Idr-31" value="" style="endArrow=classic;html=1;rounded=0;entryX=0;entryY=0.5;entryDx=0;entryDy=0;entryPerimeter=0;" edge="1" parent="1" target="KbHtConoDjhi0rnQ_Idr-25">
          <mxGeometry width="50" height="50" relative="1" as="geometry">
            <mxPoint x="100" y="660" as="sourcePoint" />
            <mxPoint x="150" y="610" as="targetPoint" />
          </mxGeometry>
        </mxCell>
        <mxCell id="KbHtConoDjhi0rnQ_Idr-39" value="" style="strokeWidth=2;html=1;shape=mxgraph.flowchart.annotation_1;align=left;pointerEvents=1;rotation=-180;" vertex="1" parent="1">
          <mxGeometry x="700" y="280" width="50" height="380" as="geometry" />
        </mxCell>
        <mxCell id="KbHtConoDjhi0rnQ_Idr-40" value="" style="endArrow=classic;html=1;rounded=0;exitX=1;exitY=0;exitDx=0;exitDy=0;exitPerimeter=0;" edge="1" parent="1" source="KbHtConoDjhi0rnQ_Idr-39">
          <mxGeometry width="50" height="50" relative="1" as="geometry">
            <mxPoint x="630" y="670" as="sourcePoint" />
            <mxPoint x="480" y="660" as="targetPoint" />
          </mxGeometry>
        </mxCell>
      </root>
    </mxGraphModel>
  </diagram>
</mxfile>
